<svg xmlns="http://www.w3.org/2000/svg" data-name="Layer 1" viewBox="0 0 128 128"><path d="M6.16 128H29a3 3 0 0 0 3-3V3a3 3 0 0 0-3-3H6.16A6.09 6.09 0 0 0 0 6V122A6.09 6.09 0 0 0 6.16 128zM4 6A2.09 2.09 0 0 1 6.16 4H28V65.28l-.14.08L4 81.88zM4 86.71l.14-.07L28 70.13V124H6.16A2.09 2.09 0 0 1 4 122zM124.83.73A6 6 0 0 0 122 0H41a3 3 0 0 0-3 3V125a3 3 0 0 0 3 3h81a6 6 0 0 0 6-6V6A6 6 0 0 0 124.83.73zM124 8L93.77 27.87 124 52.6v5.13a2 2 0 0 1-.27-.18L90.27 30.17 42 61.82V57L87 27.51 58.29 4H64.6L90.53 25.21 122.67 4.13A2 2 0 0 1 124 6z"/></svg>